<svg xmlns="http://www.w3.org/2000/svg" viewBox="0 0 875.956 364.147"><path fill="none" stroke="#019f91" stroke-width="28.008" stroke-linecap="round" stroke-linejoin="round" stroke-miterlimit="10" d="M718.243 159.954L853.828 24.369"/><linearGradient id="a" gradientUnits="userSpaceOnUse" x1="552.152" y1="188.093" x2="737.091" y2="11.156" gradientTransform="matrix(1.137 .2071 .2071 1.137 -103.72 -98.75)"><stop offset="0" stop-color="#fff"/><stop offset="1"/></linearGradient><path opacity=".17" fill="url(#a)" d="M619.549 270.317l-93.442-93.442L632.803 70.179l93.442 93.442z"/><path fill="none" stroke="#d74656" stroke-width="28.008" stroke-linecap="round" stroke-linejoin="round" stroke-miterlimit="10" d="M487.513 207.633L623.099 72.048"/><path fill="none" stroke="#ff5d6c" stroke-width="28.008" stroke-linecap="round" stroke-linejoin="round" stroke-miterlimit="10" d="M626.669 69.381l91.574 91.573"/><linearGradient id="b" gradientUnits="userSpaceOnUse" x1="333.305" y1="269.018" x2="518.245" y2="92.081" gradientTransform="matrix(1.137 .2071 .2071 1.137 -103.72 -98.75)"><stop offset="0" stop-color="#fff"/><stop offset="1"/></linearGradient><path opacity=".17" fill="url(#b)" d="M387.486 316.996l-93.442-93.442L400.74 116.859l93.442 93.442z"/><path fill="none" stroke="#2c3854" stroke-width="28.008" stroke-linecap="round" stroke-linejoin="round" stroke-miterlimit="10" d="M255.45 254.313l135.586-135.586"/><path fill="none" stroke="#4a546e" stroke-width="28.008" stroke-linecap="round" stroke-linejoin="round" stroke-miterlimit="10" d="M394.606 116.06l91.574 91.573"/><linearGradient id="c" gradientUnits="userSpaceOnUse" x1="92.303" y1="326.353" x2="277.242" y2="149.416" gradientTransform="matrix(1.1404 .2105 .2105 1.1404 -73.5 -68.53)"><stop offset="0" stop-color="#fff"/><stop offset="1"/></linearGradient><path opacity=".17" fill="url(#c)" d="M157.227 364.147l-93.913-93.913L170.01 163.538l93.913 93.913z"/><path fill="none" stroke="#00a8df" stroke-width="28.008" stroke-linecap="round" stroke-linejoin="round" stroke-miterlimit="10" d="M24.721 300.992l135.585-135.585"/><path fill="none" stroke="#0ac0ea" stroke-width="28.008" stroke-linecap="round" stroke-linejoin="round" stroke-miterlimit="10" d="M163.877 162.739l91.573 91.574"/><path fill="none" stroke="#019f91" stroke-width="22.506" stroke-linecap="round" stroke-linejoin="round" stroke-miterlimit="10" d="M800.932 13.248h60.016v60.016"/><g fill="#fff"><path d="M690.889-16.813h-2.48v-2.507a.775.775 0 0 0-1.55 0v2.962l-3.238 3.247a17.596 17.596 0 0 0-11.91-4.603c-4.732 0-9.18 1.843-12.526 5.188C655.84-9.18 653.997-4.732 653.997 0s1.843 9.18 5.188 12.526c.52.52 1.068 1.004 1.638 1.451l-4.266 4.266a.776.776 0 0 0 1.096 1.096l4.45-4.45a17.59 17.59 0 0 0 9.607 2.826c3.478 0 6.802-.997 9.649-2.853l4.477 4.477a.772.772 0 0 0 1.096 0 .775.775 0 0 0 0-1.096l-4.297-4.297a17.988 17.988 0 0 0 1.6-1.42A17.597 17.597 0 0 0 689.423 0c0-2.695-.59-5.283-1.753-7.692a.775.775 0 0 0-1.395.673A16.014 16.014 0 0 1 687.874 0c0 8.913-7.252 16.165-16.165 16.165S655.547 8.913 655.547 0s7.251-16.165 16.165-16.165a16.06 16.06 0 0 1 10.816 4.151l-2.719 2.726a12.238 12.238 0 0 0-8.097-3.034c-6.794 0-12.322 5.527-12.322 12.322s5.528 12.322 12.322 12.322S684.033 6.794 684.033 0c0-1.096-.144-2.183-.428-3.231a12.328 12.328 0 0 0-2.695-4.967l3.275-3.284.003-.003.003-.003 3.766-3.776h2.933a.775.775 0 1 0-.001-1.549zM682.11-2.825c.248.916.374 1.867.374 2.825 0 5.94-4.832 10.772-10.772 10.772S660.94 5.939 660.94 0s4.833-10.772 10.772-10.772a10.7 10.7 0 0 1 7.001 2.584l-3.198 3.207a6.238 6.238 0 0 0-3.803-1.289c-3.458 0-6.271 2.813-6.271 6.271s2.813 6.271 6.271 6.271 6.271-2.813 6.271-6.271a6.237 6.237 0 0 0-1.363-3.896l3.194-3.203a10.777 10.777 0 0 1 2.296 4.273zM671.268.373a.77.77 0 0 0 1.095-.002l3.153-3.162c.575.782.916 1.747.916 2.791 0 2.603-2.118 4.721-4.721 4.721S666.99 2.603 666.99 0s2.118-4.721 4.721-4.721c1.002 0 1.931.315 2.696.849l-3.141 3.15a.774.774 0 0 0 .002 1.095z"/><circle cx="685.474" cy="-9.743" r=".775"/></g></svg>